<svg width="224" height="127" viewBox="0 0 224 127" fill="none" xmlns="http://www.w3.org/2000/svg">
<path d="M44.1818 62H30.5455L53.6364 15.4545H70.9091L78.5455 62H64.9091L60.3636 28.2727H60L44.1818 62ZM44.7273 43.6364H70.3636L68.7273 53.0909H43.0909L44.7273 43.6364ZM83.2102 62L89.0284 27.0909H101.574L95.7557 62H83.2102ZM95.8466 23.4545C94.1496 23.4545 92.7784 22.8939 91.733 21.7727C90.6875 20.6364 90.3011 19.2879 90.5739 17.7273C90.8466 16.1364 91.6799 14.7879 93.0739 13.6818C94.4678 12.5606 96.0133 12 97.7102 12C99.4223 12 100.786 12.5606 101.801 13.6818C102.816 14.7879 103.195 16.1364 102.938 17.7273C102.695 19.2879 101.877 20.6364 100.483 21.7727C99.1042 22.8939 97.5587 23.4545 95.8466 23.4545ZM143.148 27.0909L125.602 62H111.057L105.148 27.0909H117.875L119.693 50.1818H120.057L129.511 27.0909H143.148ZM140.898 62L146.716 27.0909H159.261L153.443 62H140.898ZM153.534 23.4545C151.837 23.4545 150.466 22.8939 149.42 21.7727C148.375 20.6364 147.989 19.2879 148.261 17.7273C148.534 16.1364 149.367 14.7879 150.761 13.6818C152.155 12.5606 153.701 12 155.398 12C157.11 12 158.473 12.5606 159.489 13.6818C160.504 14.7879 160.883 16.1364 160.625 17.7273C160.383 19.2879 159.564 20.6364 158.17 21.7727C156.792 22.8939 155.246 23.4545 153.534 23.4545ZM195.562 38.4545H184.29C184.35 37.7273 184.222 37.1061 183.903 36.5909C183.585 36.0758 183.138 35.6818 182.562 35.4091C182.002 35.1364 181.366 35 180.653 35C179.411 35 178.282 35.2803 177.267 35.8409C176.252 36.3864 175.684 37.1061 175.562 38C175.487 38.3485 175.6 38.6742 175.903 38.9773C176.206 39.2803 177.002 39.5606 178.29 39.8182L185.199 41.0909C188.653 41.7273 191.169 42.8864 192.744 44.5682C194.335 46.2348 194.911 48.4394 194.472 51.1818C194.063 53.5606 193.017 55.6061 191.335 57.3182C189.653 59.0303 187.517 60.3485 184.926 61.2727C182.35 62.1818 179.502 62.6364 176.381 62.6364C170.881 62.6364 166.759 61.5379 164.017 59.3409C161.29 57.1439 160.047 54.2727 160.29 50.7273H172.472C172.502 51.8636 172.881 52.7197 173.608 53.2955C174.35 53.8561 175.335 54.1515 176.562 54.1818C177.896 54.2273 179.062 53.9621 180.062 53.3864C181.062 52.7955 181.623 52.0606 181.744 51.1818C181.79 50.6818 181.57 50.303 181.085 50.0455C180.616 49.7879 179.714 49.5303 178.381 49.2727L172.381 48.1818C168.926 47.5606 166.411 46.3182 164.835 44.4545C163.259 42.5758 162.714 40.1818 163.199 37.2727C163.593 34.9545 164.532 33.0076 166.017 31.4318C167.517 29.8561 169.487 28.6667 171.926 27.8636C174.366 27.0455 177.184 26.6364 180.381 26.6364C185.608 26.6364 189.563 27.6894 192.244 29.7955C194.941 31.8864 196.047 34.7727 195.562 38.4545Z" fill="#6CCEE7"/>
<path d="M34.3636 112.727C32.5909 112.727 31.1439 112.114 30.0227 110.886C28.9167 109.644 28.4545 108.136 28.6364 106.364C28.8182 104.636 29.5985 103.159 30.9773 101.932C32.3712 100.705 33.9545 100.091 35.7273 100.091C37.4091 100.091 38.8106 100.705 39.9318 101.932C41.0682 103.159 41.5455 104.636 41.3636 106.364C41.2424 107.545 40.8258 108.621 40.1136 109.591C39.4167 110.545 38.553 111.311 37.5227 111.886C36.5076 112.447 35.4545 112.727 34.3636 112.727ZM95.0909 65.4545L87.3636 112H76.8182L64.0909 87.5455H63.8182L59.7273 112H47.0909L54.8182 65.4545H65.5455L78.0909 89.8182H78.4545L82.4545 65.4545H95.0909ZM93.3409 112L101.068 65.4545H134.614L132.886 75.6364H111.977L110.705 83.6364H129.886L128.159 93.8182H108.977L107.705 101.818H128.523L126.795 112H93.3409ZM137.881 75.6364L139.608 65.4545H180.062L178.335 75.6364H164.335L158.335 112H145.881L151.881 75.6364H137.881Z" fill="#296AA2"/>
</svg>
